<?xml version="1.0" encoding="UTF-8" standalone="no"?>
<!-- Created with Inkscape (http://www.inkscape.org/) -->

<svg
   xmlns:dc="http://purl.org/dc/elements/1.1/"
   xmlns:cc="http://creativecommons.org/ns#"
   xmlns:rdf="http://www.w3.org/1999/02/22-rdf-syntax-ns#"
   xmlns:svg="http://www.w3.org/2000/svg"
   xmlns="http://www.w3.org/2000/svg"
   xmlns:sodipodi="http://sodipodi.sourceforge.net/DTD/sodipodi-0.dtd"
   xmlns:inkscape="http://www.inkscape.org/namespaces/inkscape"
   width="105pt"
   height="105pt"
   viewBox="0 0 37.041667 37.041667"
   version="1.1"
   id="svg8"
   sodipodi:docname="favicon.svg"
   inkscape:version="0.92.4 (5da689c313, 2019-01-14)">
  <defs
     id="defs2" />
  <sodipodi:namedview
     id="base"
     pagecolor="#ffffff"
     bordercolor="#666666"
     borderopacity="1.0"
     inkscape:pageopacity="0.0"
     inkscape:pageshadow="2"
     inkscape:zoom="1.979899"
     inkscape:cx="6.728039"
     inkscape:cy="34.944351"
     inkscape:document-units="mm"
     inkscape:current-layer="layer1"
     showgrid="false"
     units="pt"
     inkscape:window-width="1920"
     inkscape:window-height="1017"
     inkscape:window-x="-8"
     inkscape:window-y="-8"
     inkscape:window-maximized="1" />
  <metadata
     id="metadata5">
    <rdf:RDF>
      <cc:Work
         rdf:about="">
        <dc:format>image/svg+xml</dc:format>
        <dc:type
           rdf:resource="http://purl.org/dc/dcmitype/StillImage" />
        <dc:title></dc:title>
      </cc:Work>
    </rdf:RDF>
  </metadata>
  <g
     inkscape:label="Layer 1"
     inkscape:groupmode="layer"
     id="layer1"
     transform="translate(0,-259.95834)">
    <rect
       style="opacity:1;vector-effect:none;fill:#ffffff;fill-opacity:1;fill-rule:nonzero;stroke:none;stroke-width:1.32291663;stroke-linecap:butt;stroke-linejoin:miter;stroke-miterlimit:4;stroke-dasharray:none;stroke-dashoffset:0;stroke-opacity:1"
       id="rect5234"
       width="37.041668"
       height="37.041668"
       x="-6.357829e-07"
       y="259.95834"
       ry="4.5466318" />
    <g
       id="g5232"
       transform="matrix(0.93450726,0,0,0.93450726,1.0480704,9.6796813)"
       style="stroke-width:1.07008266">
      <path
         transform="matrix(0.26458333,0,0,0.26458333,0,279.36112)"
         inkscape:connector-curvature="0"
         id="path4640"
         d="m 59.216797,2.7285156 c -2.844636,0 -5.688567,0.8918443 -8.533203,2.6757813 -0.978718,0.5971832 -1.923907,1.288384 -2.839844,2.0625 1.327696,2.0926784 2.137433,4.5116091 2.451172,7.1425781 0.402792,-0.352762 0.799672,-0.683661 1.183594,-0.960937 1.783924,-1.301771 3.303072,-1.953126 4.55664,-1.953126 1.59107,1e-6 2.386719,1.086235 2.386719,3.25586 0,2.314305 -0.216461,5.206314 -0.650391,8.677734 -0.72321,5.544618 -1.711272,12.102187 -2.964843,19.671875 -0.293121,1.660992 -0.533913,3.079197 -0.763672,4.455078 1.283656,0.112067 2.695527,0.817189 3.451172,1.951172 0.739396,1.109957 1.000003,2.381256 1,3.632813 0,3.52328 -2.126457,6.546419 -5.384766,8.298828 0.192142,0.693193 0.465885,1.237994 0.828125,1.623047 0.771427,0.771225 2.05006,1.15625 3.833984,1.15625 v 0.002 c 1.880358,0 3.132987,-0.482756 3.759766,-1.447266 0.675001,-0.964308 1.182035,-2.67578 1.519531,-5.134765 1.591068,-11.619578 3.567191,-20.826815 5.929688,-27.625 2.410708,-6.846388 4.869816,-11.596255 7.376953,-14.248047 2.507137,-2.700019 4.942193,-4.050782 7.304687,-4.050782 1.398216,0 2.434382,0.43488 3.109375,1.302735 0.72321,0.867855 1.085938,2.216664 1.085938,4.048828 0,3.374967 -1.110273,10.896623 -3.328125,22.564453 -0.819639,4.339276 -1.493079,8.125081 -2.023438,11.355469 -0.530358,3.182085 -0.796875,5.761462 -0.796875,7.738281 0,2.121625 0.362728,3.568644 1.085938,4.339844 0.771427,0.771225 1.975952,1.15625 3.615234,1.15625 1.880353,0 3.231141,-0.482756 4.050782,-1.447266 0.867857,-1.012535 1.469143,-2.964596 1.80664,-5.857422 1.398211,-10.80005 3.207929,-19.576212 5.425781,-26.326172 2.266069,-6.749933 4.627011,-11.569964 7.085941,-14.46289 2.50713,-2.941027 4.89409,-4.41211 7.16015,-4.41211 1.20536,0 2.12127,0.432927 2.74805,1.300782 0.675,0.819628 1.01367,2.074235 1.01367,3.761718 0,0.964309 -0.0721,1.952309 -0.21679,2.964844 -0.14466,0.964208 -0.33902,2.000411 -0.58008,3.109375 -0.24105,1.109367 -0.40941,1.880992 -0.50586,2.314453 l -2.89258,13.234375 c -1.15714,5.400038 -1.73633,9.522589 -1.73633,12.367188 0,4.098242 1.15838,7.377027 3.47266,9.835937 2.31428,2.410659 5.51898,3.617188 9.61719,3.617188 2.69999,0 5.28131,-0.699508 7.74023,-2.097656 2.45892,-1.398224 4.94013,-3.616792 7.44727,-6.654297 0.91606,-1.108964 1.375,-2.604085 1.375,-4.484375 -10e-6,-1.012233 -0.19242,-1.807821 -0.57813,-2.386719 -0.3375,-0.578898 -0.82048,-0.867187 -1.44727,-0.867187 -0.7232,0 -1.37455,0.337148 -1.95312,1.011718 -2.07321,2.458885 -3.88098,4.218535 -5.42383,5.279297 -1.49464,1.060737 -3.03784,1.591797 -4.62891,1.591797 -1.68749,0 -3.01227,-0.507021 -3.97656,-1.519531 -0.91607,-1.012536 -1.375,-2.531671 -1.375,-4.556641 0,-1.73571 0.24247,-3.807991 0.72461,-6.21875 l 4.41016,-20.683594 c 0.62678,-3.037505 0.9414,-5.616857 0.9414,-7.738281 0,-3.905335 -0.9159,-6.9436307 -2.74804,-9.1132811 -1.78393,-2.1696252 -4.36329,-3.2539063 -7.73828,-3.2539063 -4.19464,0 -7.90833,1.4450655 -11.13868,4.3378906 -3.23035,2.8929008 -6.050224,7.6668068 -8.460933,14.3203128 0.433927,-2.362457 0.650391,-4.338658 0.650391,-5.929688 0,-4.050015 -0.915909,-7.1844663 -2.748047,-9.4023435 -1.783925,-2.217852 -4.243032,-3.3261719 -7.376953,-3.3261719 -4.098208,0 -7.858044,1.567238 -11.28125,4.7011719 -3.423207,3.0857325 -6.509603,8.5570925 -9.257813,16.4160155 0.09643,-0.43394 0.240737,-1.205464 0.433594,-2.314453 0.192869,-1.108863 0.409332,-2.529915 0.65039,-4.265625 0.241059,-1.783937 0.363282,-3.327111 0.363282,-4.628906 0,-3.2303877 -0.723495,-5.6894699 -2.169922,-7.3769534 -1.398211,-1.6874834 -3.424393,-2.53125 -6.076172,-2.53125 z M 47.832031,7.4765625 c -0.845879,0.7158114 -1.664728,1.5081988 -2.457031,2.375 0.792746,-0.8653845 1.611207,-1.6592679 2.457031,-2.375 z m -2.626953,2.5624995 c -0.320739,0.35699 -0.635391,0.727401 -0.947266,1.109376 0.311969,-0.381431 0.626399,-0.75302 0.947266,-1.109376 z m -1.1875,1.402344 c -0.362747,0.455054 -0.721689,0.922757 -1.072266,1.41211 0.350834,-0.48971 0.709077,-0.957199 1.072266,-1.41211 z m 5.587891,3.814453 c -0.189997,0.181169 -0.380306,0.36173 -0.574219,0.558594 0.194148,-0.197681 0.384064,-0.376887 0.574219,-0.558594 z m -1.242188,1.263672 c -0.23914,0.25894 -0.481614,0.534236 -0.726562,0.816407 0.245164,-0.283165 0.487195,-0.556432 0.726562,-0.816407 z m -1.296875,1.478516 c -0.44912,0.540521 -0.904655,1.109132 -1.373047,1.726562 0.468663,-0.617788 0.923209,-1.184074 1.373047,-1.726562 z m 6.96875,29.802734 c -0.333872,2.000741 -0.620984,3.796076 -0.820312,5.191407 0.198982,-1.392908 0.486891,-3.193488 0.820312,-5.191407 z M 52.78125,58.705078 c 0,0.574793 0.02825,1.097228 0.08008,1.578125 -0.05255,-0.479943 -0.08008,-1.00284 -0.08008,-1.578125 z m 0.261719,2.646484 c 0.02165,0.09338 0.04005,0.192864 0.06445,0.28125 -0.02444,-0.08848 -0.04272,-0.187883 -0.06445,-0.28125 z"
         style="font-style:normal;font-variant:normal;font-weight:normal;font-stretch:normal;font-size:4.93888855px;line-height:1.25;font-family:Pacifico;-inkscape-font-specification:Pacifico;font-variant-ligatures:normal;font-variant-caps:normal;font-variant-numeric:normal;font-feature-settings:normal;text-align:start;letter-spacing:0px;word-spacing:0px;writing-mode:lr-tb;text-anchor:start;fill:#000000;fill-opacity:1;stroke:none;stroke-width:1.07008243" />
      <path
         d="m 7.949412,296.3404 q -2.2770657,0 -3.9609459,-0.8228 -1.6838803,-0.84194 -2.5832255,-2.37273 -0.89934522,-1.5308 -0.89934522,-3.5591 0,-2.81286 1.05242522,-4.99424 1.0715602,-2.18141 2.8893857,-3.36778 1.8178254,-1.20551 4.0374858,-1.20551 2.0665799,0 3.1381409,1.07157 1.07156,1.05243 1.07156,2.79372 0,1.16723 -0.42097,1.87523 -0.401835,0.708 -1.167235,0.708 -0.535781,0 -0.841941,-0.24873 -0.3061588,-0.24874 -0.3061588,-0.72714 0,-0.17241 0.076542,-0.63145 0.114809,-0.57406 0.114809,-0.91849 0,-1.74129 -1.856094,-1.74129 -1.2629101,0 -2.4110106,0.82284 -1.1481001,0.82279 -1.8560953,2.43015 -0.7079952,1.58817 -0.7079952,3.78873 0,2.29617 1.2820454,3.5591 1.2820451,1.24378 3.7887306,1.24378 1.2437754,0 2.5066841,-0.30607 1.282045,-0.32545 2.83198,-0.97588 0.287024,-0.11468 0.478376,-0.11468 0.306159,0 0.45924,0.22975 0.153079,0.22975 0.153079,0.5932 0,1.16723 -1.26291,1.72215 -1.358585,0.59321 -2.831981,0.88022 -1.4542582,0.26772 -2.7745735,0.26772 z"
         style="font-style:normal;font-variant:normal;font-weight:normal;font-stretch:normal;font-size:4.93888855px;line-height:1.25;font-family:Pacifico;-inkscape-font-specification:Pacifico;font-variant-ligatures:normal;font-variant-caps:normal;font-variant-numeric:normal;font-feature-settings:normal;text-align:start;letter-spacing:0px;word-spacing:0px;writing-mode:lr-tb;text-anchor:start;fill:#000000;fill-opacity:1;stroke:none;stroke-width:0.283126"
         id="path4638"
         inkscape:connector-curvature="0" />
    </g>
  </g>
</svg>
