<?xml version="1.0" encoding="UTF-8" standalone="no"?>
<svg
   xmlns:dc="http://purl.org/dc/elements/1.1/"
   xmlns:cc="http://creativecommons.org/ns#"
   xmlns:rdf="http://www.w3.org/1999/02/22-rdf-syntax-ns#"
   xmlns:svg="http://www.w3.org/2000/svg"
   xmlns="http://www.w3.org/2000/svg"
   id="svg8"
   version="1.1"
   viewBox="0 0 37.041667 17.638889"
   height="50pt"
   width="105pt">
  <defs
     id="defs2" />
  <metadata
     id="metadata5">
    <rdf:RDF>
      <cc:Work
         rdf:about="">
        <dc:format>image/svg+xml</dc:format>
        <dc:type
           rdf:resource="http://purl.org/dc/dcmitype/StillImage" />
        <dc:title></dc:title>
      </cc:Work>
    </rdf:RDF>
  </metadata>
  <g
     transform="translate(0,-279.36112)"
     id="layer1">
    <path
       id="path4640"
       transform="matrix(0.26458333,0,0,0.26458333,0,279.36112)"
       d="M 59.216797 2.7285156 C 56.372161 2.7285156 53.52823 3.6203599 50.683594 5.4042969 C 49.704876 6.0014801 48.759687 6.6926809 47.84375 7.4667969 C 49.171446 9.5594753 49.981183 11.978406 50.294922 14.609375 C 50.697714 14.256613 51.094594 13.925714 51.478516 13.648438 C 53.26244 12.346667 54.781588 11.695312 56.035156 11.695312 C 57.626226 11.695313 58.421875 12.781547 58.421875 14.951172 C 58.421875 17.265477 58.205414 20.157486 57.771484 23.628906 C 57.048274 29.173524 56.060212 35.731093 54.806641 43.300781 C 54.51352 44.961773 54.272728 46.379978 54.042969 47.755859 C 55.326625 47.867926 56.738496 48.573048 57.494141 49.707031 C 58.233537 50.816988 58.494144 52.088287 58.494141 53.339844 C 58.494141 56.863124 56.367684 59.886263 53.109375 61.638672 C 53.301517 62.331865 53.57526 62.876666 53.9375 63.261719 C 54.708927 64.032944 55.98756 64.417969 57.771484 64.417969 L 57.771484 64.419922 C 59.651842 64.419922 60.904471 63.937166 61.53125 62.972656 C 62.206251 62.008348 62.713285 60.296876 63.050781 57.837891 C 64.641849 46.218313 66.617972 37.011076 68.980469 30.212891 C 71.391177 23.366503 73.850285 18.616636 76.357422 15.964844 C 78.864559 13.264825 81.299615 11.914062 83.662109 11.914062 C 85.060325 11.914062 86.096491 12.348942 86.771484 13.216797 C 87.494694 14.084652 87.857422 15.433461 87.857422 17.265625 C 87.857422 20.640592 86.747149 28.162248 84.529297 39.830078 C 83.709658 44.169354 83.036218 47.955159 82.505859 51.185547 C 81.975501 54.367632 81.708984 56.947009 81.708984 58.923828 C 81.708984 61.045453 82.071712 62.492472 82.794922 63.263672 C 83.566349 64.034897 84.770874 64.419922 86.410156 64.419922 C 88.290509 64.419922 89.641297 63.937166 90.460938 62.972656 C 91.328795 61.960121 91.930081 60.00806 92.267578 57.115234 C 93.665789 46.315184 95.475507 37.539022 97.693359 30.789062 C 99.959428 24.039129 102.32037 19.219098 104.7793 16.326172 C 107.28643 13.385145 109.67339 11.914062 111.93945 11.914062 C 113.14481 11.914062 114.06072 12.346989 114.6875 13.214844 C 115.3625 14.034472 115.70117 15.289079 115.70117 16.976562 C 115.70117 17.940871 115.62903 18.928871 115.48438 19.941406 C 115.33972 20.905614 115.14536 21.941817 114.9043 23.050781 C 114.66325 24.160148 114.49489 24.931773 114.39844 25.365234 L 111.50586 38.599609 C 110.34872 43.999647 109.76953 48.122198 109.76953 50.966797 C 109.76953 55.065039 110.92791 58.343824 113.24219 60.802734 C 115.55647 63.213393 118.76117 64.419922 122.85938 64.419922 C 125.55937 64.419922 128.14069 63.720414 130.59961 62.322266 C 133.05853 60.924042 135.53974 58.705474 138.04688 55.667969 C 138.96294 54.559005 139.42188 53.063884 139.42188 51.183594 C 139.42187 50.171361 139.22946 49.375773 138.84375 48.796875 C 138.50625 48.217977 138.02327 47.929688 137.39648 47.929688 C 136.67328 47.929688 136.02193 48.266836 135.44336 48.941406 C 133.37015 51.400291 131.56238 53.159941 130.01953 54.220703 C 128.52489 55.28144 126.98169 55.8125 125.39062 55.8125 C 123.70313 55.8125 122.37835 55.305479 121.41406 54.292969 C 120.49799 53.280433 120.03906 51.761298 120.03906 49.736328 C 120.03906 48.000618 120.28153 45.928337 120.76367 43.517578 L 125.17383 22.833984 C 125.80061 19.796479 126.11523 17.217127 126.11523 15.095703 C 126.11523 11.190368 125.19933 8.1520723 123.36719 5.9824219 C 121.58326 3.8127967 119.0039 2.7285156 115.62891 2.7285156 C 111.43427 2.7285156 107.72058 4.1735811 104.49023 7.0664062 C 101.25988 9.959307 98.440006 14.733213 96.029297 21.386719 C 96.463224 19.024262 96.679688 17.048061 96.679688 15.457031 C 96.679688 11.407016 95.763779 8.2725647 93.931641 6.0546875 C 92.147716 3.8368355 89.688609 2.7285156 86.554688 2.7285156 C 82.45648 2.7285156 78.696644 4.2957536 75.273438 7.4296875 C 71.850231 10.51542 68.763835 15.98678 66.015625 23.845703 C 66.112051 23.411763 66.256362 22.640239 66.449219 21.53125 C 66.642088 20.422387 66.858551 19.001335 67.099609 17.265625 C 67.340668 15.481688 67.462891 13.938514 67.462891 12.636719 C 67.462891 9.4063313 66.739396 6.9472491 65.292969 5.2597656 C 63.894758 3.5722822 61.868576 2.7285156 59.216797 2.7285156 z M 47.832031 7.4765625 C 46.986152 8.1923739 46.167303 8.9847613 45.375 9.8515625 C 46.167746 8.986178 46.986207 8.1922946 47.832031 7.4765625 z M 45.205078 10.039062 C 44.884339 10.396052 44.569687 10.766463 44.257812 11.148438 C 44.569781 10.767007 44.884211 10.395418 45.205078 10.039062 z M 44.017578 11.441406 C 43.654831 11.89646 43.295889 12.364163 42.945312 12.853516 C 43.296146 12.363806 43.654389 11.896317 44.017578 11.441406 z M 49.605469 15.255859 C 49.415472 15.437028 49.225163 15.617589 49.03125 15.814453 C 49.225398 15.616772 49.415314 15.437566 49.605469 15.255859 z M 48.363281 16.519531 C 48.124141 16.778471 47.881667 17.053767 47.636719 17.335938 C 47.881883 17.052773 48.123914 16.779506 48.363281 16.519531 z M 47.066406 17.998047 C 46.617286 18.538568 46.161751 19.107179 45.693359 19.724609 C 46.162022 19.106821 46.616568 18.540535 47.066406 17.998047 z M 54.035156 47.800781 C 53.701284 49.801522 53.414172 51.596857 53.214844 52.992188 C 53.413826 51.59928 53.701735 49.7987 54.035156 47.800781 z M 52.78125 58.705078 C 52.78125 59.279871 52.809496 59.802306 52.861328 60.283203 C 52.808781 59.80326 52.78125 59.280363 52.78125 58.705078 z M 53.042969 61.351562 C 53.064615 61.444946 53.083018 61.544426 53.107422 61.632812 C 53.082984 61.544336 53.0647 61.444929 53.042969 61.351562 z "
       style="font-style:normal;font-variant:normal;font-weight:normal;font-stretch:normal;font-size:4.93888855px;line-height:1.25;font-family:Pacifico;-inkscape-font-specification:Pacifico;font-variant-ligatures:normal;font-variant-caps:normal;font-variant-numeric:normal;font-feature-settings:normal;text-align:start;letter-spacing:0px;word-spacing:0px;writing-mode:lr-tb;text-anchor:start;fill:#1890ff;fill-opacity:1;stroke:none;stroke-width:0.99999982" />
    <path
       d="m 7.949412,296.3404 q -2.2770657,0 -3.9609459,-0.8228 -1.6838803,-0.84194 -2.5832255,-2.37273 -0.89934522,-1.5308 -0.89934522,-3.5591 0,-2.81286 1.05242522,-4.99424 1.0715602,-2.18141 2.8893857,-3.36778 1.8178254,-1.20551 4.0374858,-1.20551 2.0665799,0 3.1381409,1.07157 1.07156,1.05243 1.07156,2.79372 0,1.16723 -0.42097,1.87523 -0.401835,0.708 -1.167235,0.708 -0.535781,0 -0.841941,-0.24873 -0.3061588,-0.24874 -0.3061588,-0.72714 0,-0.17241 0.076542,-0.63145 0.114809,-0.57406 0.114809,-0.91849 0,-1.74129 -1.8560956,-1.74129 -1.2629101,0 -2.4110106,0.82284 -1.1481001,0.82279 -1.8560953,2.43015 -0.7079952,1.58817 -0.7079952,3.78873 0,2.29617 1.2820454,3.5591 1.2820451,1.24378 3.7887306,1.24378 1.2437754,0 2.5066857,-0.30607 1.282045,-0.32545 2.83198,-0.97588 0.287024,-0.11468 0.478376,-0.11468 0.306159,0 0.45924,0.22975 0.153079,0.22975 0.153079,0.5932 0,1.16723 -1.26291,1.72215 -1.358585,0.59321 -2.831981,0.88022 -1.4542598,0.26772 -2.7745751,0.26772 z"
       style="font-style:normal;font-variant:normal;font-weight:normal;font-stretch:normal;font-size:4.93888855px;line-height:1.25;font-family:Pacifico;-inkscape-font-specification:Pacifico;font-variant-ligatures:normal;font-variant-caps:normal;font-variant-numeric:normal;font-feature-settings:normal;text-align:start;letter-spacing:0px;word-spacing:0px;writing-mode:lr-tb;text-anchor:start;fill:#1890ff;fill-opacity:1;stroke:none;stroke-width:0.26458329"
       id="path4638" />
  </g>
</svg>
