<?xml version="1.0" encoding="UTF-8" standalone="no"?>
<svg
   xmlns:dc="http://purl.org/dc/elements/1.1/"
   xmlns:cc="http://creativecommons.org/ns#"
   xmlns:rdf="http://www.w3.org/1999/02/22-rdf-syntax-ns#"
   xmlns:svg="http://www.w3.org/2000/svg"
   xmlns="http://www.w3.org/2000/svg"
   id="svg8"
   version="1.1"
   viewBox="0 0 111.125 17.638889"
   height="50pt"
   width="315pt">
  <defs
     id="defs2" />
  <metadata
     id="metadata5">
    <rdf:RDF>
      <cc:Work
         rdf:about="">
        <dc:format>image/svg+xml</dc:format>
        <dc:type
           rdf:resource="http://purl.org/dc/dcmitype/StillImage" />
        <dc:title></dc:title>
      </cc:Work>
    </rdf:RDF>
  </metadata>
  <g
     transform="translate(0,-279.36112)"
     id="layer1">
    <g
       id="text821"
       style="font-style:normal;font-variant:normal;font-weight:normal;font-stretch:normal;font-size:13.28229523px;line-height:1.25;font-family:'Roboto Condensed';-inkscape-font-specification:'Roboto Condensed, Normal';font-variant-ligatures:normal;font-variant-caps:normal;font-variant-numeric:normal;font-feature-settings:normal;text-align:start;letter-spacing:0px;word-spacing:0px;writing-mode:lr-tb;text-anchor:start;fill:#000000;fill-opacity:1;stroke:none;stroke-width:0.26458332"
       aria-label="Customer Manager">
      <path
         id="path4529"
         style="font-style:normal;font-variant:normal;font-weight:normal;font-stretch:normal;font-family:Pacifico;-inkscape-font-specification:Pacifico;stroke-width:0.26458332"
         d="m 5.61827,291.02298 q -1.5805932,0 -2.7494351,-0.57113 -1.168842,-0.58442 -1.7931099,-1.64701 -0.62426786,-1.06258 -0.62426786,-2.47051 0,-1.95249 0.73052626,-3.46667 0.7438085,-1.51419 2.0056266,-2.33769 1.261818,-0.83678 2.8025642,-0.83678 1.4344879,0 2.1782965,0.74381 0.7438085,0.73052 0.7438085,1.93921 0,0.81022 -0.2922105,1.30167 -0.2789282,0.49144 -0.81022,0.49144 -0.3719043,0 -0.584421,-0.17267 -0.2125167,-0.17267 -0.2125167,-0.50473 0,-0.11954 0.053129,-0.43831 0.079694,-0.39847 0.079694,-0.63755 0,-1.20869 -1.2883826,-1.20869 -0.8766315,0 -1.6735692,0.57114 -0.7969377,0.57114 -1.2883826,1.68685 -0.491445,1.10243 -0.491445,2.62989 0,1.59388 0.8899138,2.47051 0.8899138,0.86335 2.6298945,0.86335 0.8633492,0 1.7399806,-0.21252 0.8899138,-0.2258 1.9657797,-0.67739 0.1992345,-0.0797 0.3320574,-0.0797 0.2125165,0 0.3187755,0.15939 0.106258,0.15939 0.106258,0.41175 0,0.81022 -0.8766315,1.19541 -0.943043,0.41175 -1.9657797,0.61098 -1.0094544,0.18595 -1.9259328,0.18595 z" />
      <path
         id="path4531"
         style="font-style:normal;font-variant:normal;font-weight:normal;font-stretch:normal;font-family:Pacifico;-inkscape-font-specification:Pacifico;stroke-width:0.26458332"
         d="m 10.69937,291.02298 q -0.597703,0 -0.9828897,-0.54457 -0.3719042,-0.55786 -0.3719042,-1.38136 0,-0.99617 0.1328229,-1.81967 0.132823,-0.83679 0.4383158,-1.76655 0.1328232,-0.39847 0.3719042,-0.57114 0.239081,-0.17267 0.757091,-0.17267 0.29221,0 0.398469,0.093 0.11954,0.093 0.11954,0.27893 0,0.10626 -0.146105,0.71724 -0.132823,0.49145 -0.212517,0.88992 -0.265646,1.39464 -0.265646,1.85952 0,0.27893 0.06641,0.39847 0.06641,0.10625 0.212517,0.10625 0.199234,0 0.491445,-0.39846 0.305492,-0.39847 0.63755,-1.20869 0.345339,-0.81022 0.664115,-1.99235 0.106258,-0.39847 0.318775,-0.57114 0.225799,-0.17267 0.664114,-0.17267 0.305493,0 0.425034,0.0797 0.11954,0.0664 0.11954,0.26564 0,0.33206 -0.332057,1.81968 -0.371904,1.70013 -0.371904,2.0986 0,0.25236 0.106258,0.39847 0.106259,0.13282 0.278928,0.13282 0.265646,0 0.624268,-0.31877 0.371905,-0.33206 0.98289,-1.06259 0.159388,-0.18595 0.358622,-0.18595 0.17267,0 0.265646,0.15939 0.106258,0.15939 0.106258,0.43831 0,0.5313 -0.252363,0.82351 -0.571139,0.70396 -1.235254,1.15556 -0.650832,0.45159 -1.487617,0.45159 -0.63755,0 -0.943043,-0.49144 -0.29221,-0.49144 -0.29221,-1.38136 -0.225799,0.9032 -0.677397,1.39464 -0.451598,0.47816 -0.969608,0.47816 z" />
      <path
         id="path4533"
         style="font-style:normal;font-variant:normal;font-weight:normal;font-stretch:normal;font-family:Pacifico;-inkscape-font-specification:Pacifico;stroke-width:0.26458332"
         d="m 17.963333,291.3152 q -0.69068,0 -1.062584,-0.31878 -0.358622,-0.31877 -0.358622,-0.71724 0,-0.34534 0.252364,-0.59771 0.252363,-0.25236 0.743808,-0.25236 0.17267,0 0.398469,0.0399 0.239081,0.0266 0.358622,0.0398 -0.01328,-0.34534 -0.159388,-0.65083 -0.132823,-0.30549 -0.345339,-0.58442 -0.212517,-0.29221 -0.398469,-0.50473 -0.411751,0.78366 -0.823502,1.30167 -0.398469,0.51801 -0.876632,0.98289 -0.239081,0.23908 -0.504727,0.23908 -0.212517,0 -0.34534,-0.14611 -0.132823,-0.15938 -0.132823,-0.38518 0,-0.26565 0.185952,-0.49145 l 0.17267,-0.21251 q 0.730526,-0.9032 1.102431,-1.48762 0.225799,-0.38519 0.531292,-1.02274 0.305492,-0.65083 0.597703,-1.34151 0.252363,-0.58442 1.049301,-0.58442 0.371904,0 0.51801,0.0664 0.146105,0.0664 0.146105,0.21252 0,0.0797 -0.05313,0.25236 -0.05313,0.17267 -0.146106,0.34534 -0.239081,0.47816 -0.239081,0.81022 0,0.19923 0.132823,0.43832 0.146105,0.23908 0.438316,0.5977 0.425033,0.55786 0.63755,0.95632 0.225799,0.38519 0.225799,0.85007 0,0.13282 -0.02657,0.37191 0.650833,-0.25237 1.527464,-1.34152 0.159388,-0.18595 0.358622,-0.18595 0.17267,0 0.265646,0.15939 0.106259,0.15939 0.106259,0.43831 0,0.50473 -0.252364,0.82351 -0.664115,0.8235 -1.2751,1.12899 -0.597704,0.29221 -1.487617,0.31878 -0.531292,0.4516 -1.261818,0.4516 z" />
      <path
         id="path4535"
         style="font-style:normal;font-variant:normal;font-weight:normal;font-stretch:normal;font-family:Pacifico;-inkscape-font-specification:Pacifico;stroke-width:0.26458332"
         d="m 27.098025,287.99462 q 0.17267,0 0.265646,0.15939 0.106258,0.15939 0.106258,0.43831 0,0.5313 -0.252364,0.82351 -0.571138,0.70396 -1.248535,1.15556 -0.677397,0.45159 -1.554029,0.45159 -2.709588,0 -2.709588,-3.81201 0,-0.58442 0.03985,-1.18213 h -0.51801 q -0.398469,0 -0.544574,-0.1461 -0.132823,-0.14611 -0.132823,-0.46488 0,-0.74381 0.597703,-0.74381 h 0.757091 q 0.225799,-1.46105 0.69068,-2.66974 0.46488,-1.20869 1.115712,-1.92594 0.664115,-0.71724 1.421206,-0.71724 0.557856,0 0.876632,0.49144 0.318775,0.49145 0.318775,1.23526 0,2.05875 -1.726699,3.58622 h 1.487617 q 0.212517,0 0.305493,0.093 0.09298,0.093 0.09298,0.34534 0,0.91648 -1.500899,0.91648 H 23.3657 q -0.02657,0.66412 -0.02657,1.03602 0,1.38136 0.318775,1.93922 0.332058,0.55785 1.036019,0.55785 0.571139,0 1.009455,-0.34534 0.438315,-0.34534 1.036019,-1.03602 0.159387,-0.18595 0.358622,-0.18595 z m -2.324402,-7.35839 q -0.199234,0 -0.451598,0.50473 -0.239081,0.49144 -0.46488,1.38136 -0.212517,0.87663 -0.358622,1.95249 0.783655,-0.67739 1.168842,-1.51418 0.398469,-0.85007 0.398469,-1.54074 0,-0.78366 -0.292211,-0.78366 z" />
      <path
         id="path4537"
         style="font-style:normal;font-variant:normal;font-weight:normal;font-stretch:normal;font-family:Pacifico;-inkscape-font-specification:Pacifico;stroke-width:0.26458332"
         d="m 33.16243,286.87891 q 0.17267,0 0.265646,0.17267 0.09298,0.17267 0.09298,0.43831 0,0.63755 -0.385187,0.7571 -0.796937,0.27892 -1.753263,0.31877 -0.252363,1.11571 -0.996172,1.79311 -0.743808,0.66411 -1.686851,0.66411 -0.796938,0 -1.368077,-0.38518 -0.557856,-0.38519 -0.850067,-1.02274 -0.29221,-0.63755 -0.29221,-1.38136 0,-1.00945 0.385187,-1.79311 0.385186,-0.79693 1.062583,-1.23525 0.677397,-0.4516 1.500899,-0.4516 1.009455,0 1.620441,0.70396 0.624267,0.69068 0.730526,1.71342 0.624268,-0.0399 1.487617,-0.26565 0.106258,-0.0266 0.185952,-0.0266 z m -4.356593,2.73615 q 0.425034,0 0.730526,-0.34534 0.318775,-0.34534 0.425034,-0.99617 -0.411751,-0.27893 -0.63755,-0.73053 -0.212517,-0.45159 -0.212517,-0.95632 0,-0.21252 0.03985,-0.42504 h -0.06641 q -0.531291,0 -0.889913,0.51801 -0.34534,0.50473 -0.34534,1.43449 0,0.73053 0.278928,1.11572 0.292211,0.38518 0.677397,0.38518 z" />
      <path
         id="path4539"
         style="font-style:normal;font-variant:normal;font-weight:normal;font-stretch:normal;font-family:Pacifico;-inkscape-font-specification:Pacifico;stroke-width:0.26458332"
         d="m 33.3241,291.02298 q -0.504727,0 -0.717244,-0.53129 -0.199234,-0.53129 -0.199234,-1.70013 0,-1.7267 0.491444,-3.28073 0.119541,-0.38518 0.385187,-0.55785 0.278928,-0.18596 0.770373,-0.18596 0.265646,0 0.371904,0.0664 0.106259,0.0664 0.106259,0.25236 0,0.21252 -0.199235,0.95632 -0.132823,0.5313 -0.212516,0.92976 -0.07969,0.38519 -0.132823,0.96961 0.358622,-1.03602 0.850067,-1.75326 0.504727,-0.71724 1.022736,-1.06258 0.531292,-0.35863 0.996172,-0.35863 0.464881,0 0.650833,0.21252 0.199234,0.21252 0.199234,0.65083 0,0.42504 -0.252363,1.54075 -0.106259,0.47816 -0.146106,0.71724 0.664115,-1.63372 1.474335,-2.37753 0.81022,-0.74381 1.514182,-0.74381 0.863349,0 0.863349,0.86335 0,0.51801 -0.29221,1.87281 -0.252364,1.15556 -0.252364,1.52746 0,0.53129 0.385187,0.53129 0.265645,0 0.624267,-0.31877 0.371905,-0.33206 0.98289,-1.06259 0.159388,-0.18595 0.358622,-0.18595 0.17267,0 0.265646,0.15939 0.106259,0.15939 0.106259,0.43831 0,0.5313 -0.252364,0.82351 -0.571139,0.70396 -1.235254,1.15556 -0.650832,0.45159 -1.487617,0.45159 -0.677397,0 -1.022736,-0.38518 -0.34534,-0.39847 -0.34534,-1.14228 0,-0.3719 0.185952,-1.32823 0.17267,-0.83678 0.17267,-1.15556 0,-0.21251 -0.146105,-0.21251 -0.17267,0 -0.491445,0.45159 -0.318775,0.43832 -0.63755,1.16885 -0.318775,0.73052 -0.51801,1.54074 -0.146105,0.63755 -0.34534,0.85007 -0.185952,0.21251 -0.610985,0.21251 -0.438316,0 -0.664115,-0.41175 -0.212517,-0.42503 -0.212517,-1.02273 0,-0.50473 0.132823,-1.46106 0.106259,-0.85006 0.106259,-1.11571 0,-0.21251 -0.146106,-0.21251 -0.199234,0 -0.504727,0.47816 -0.305493,0.47816 -0.597703,1.22197 -0.278928,0.74381 -0.451598,1.46105 -0.146105,0.62427 -0.34534,0.85007 -0.185952,0.21251 -0.597703,0.21251 z" />
      <path
         id="path4541"
         style="font-style:normal;font-variant:normal;font-weight:normal;font-stretch:normal;font-family:Pacifico;-inkscape-font-specification:Pacifico;stroke-width:0.26458332"
         d="m 48.188857,287.99462 q 0.172669,0 0.265645,0.15939 0.106259,0.15939 0.106259,0.43831 0,0.5313 -0.252364,0.82351 -0.491445,0.5977 -1.394641,1.10243 -0.889914,0.50472 -1.91265,0.50472 -1.394641,0 -2.165014,-0.75709 -0.770374,-0.75709 -0.770374,-2.07203 0,-0.91648 0.385187,-1.70014 0.385187,-0.79694 1.062584,-1.26182 0.690679,-0.46488 1.554028,-0.46488 0.770373,0 1.235254,0.46488 0.46488,0.4516 0.46488,1.23526 0,0.91648 -0.664115,1.58059 -0.650832,0.65083 -2.218143,1.03602 0.332057,0.61099 1.261818,0.61099 0.597703,0 1.354794,-0.41176 0.770373,-0.42503 1.32823,-1.10243 0.159387,-0.18595 0.358622,-0.18595 z m -3.347139,-1.92593 q -0.491445,0 -0.836784,0.57114 -0.332058,0.57114 -0.332058,1.38136 v 0.0266 q 0.783656,-0.18595 1.235254,-0.55786 0.451598,-0.3719 0.451598,-0.86334 0,-0.25237 -0.146106,-0.39847 -0.132823,-0.15939 -0.371904,-0.15939 z" />
      <path
         id="path4543"
         style="font-style:normal;font-variant:normal;font-weight:normal;font-stretch:normal;font-family:Pacifico;-inkscape-font-specification:Pacifico;stroke-width:0.26458332"
         d="m 52.84534,286.5867 q 0.292211,0 0.491445,0.21252 0.212517,0.19923 0.212517,0.50472 0,0.17267 -0.07969,0.37191 -0.212517,0.49144 -0.597703,0.8235 -0.385187,0.33206 -0.850067,0.33206 -0.371904,0 -0.63755,-0.26565 -0.252364,-0.26565 -0.252364,-0.71724 0,-0.25237 0.02657,-0.54458 0.02656,-0.21251 0.02656,-0.29221 0,-0.10626 -0.05313,-0.15939 -0.03985,-0.0531 -0.106258,-0.0531 -0.185952,0 -0.504727,0.45159 -0.318775,0.43832 -0.637551,1.16885 -0.318775,0.73052 -0.518009,1.54074 -0.146105,0.63755 -0.332057,0.85007 -0.185953,0.21251 -0.610986,0.21251 -0.504727,0 -0.717244,-0.53129 -0.199234,-0.53129 -0.199234,-1.70013 0,-1.7267 0.491445,-3.28073 0.11954,-0.38518 0.385186,-0.55785 0.278928,-0.18596 0.770373,-0.18596 0.265646,0 0.371905,0.0664 0.106258,0.0664 0.106258,0.25236 0,0.21252 -0.199235,0.95632 -0.132823,0.5313 -0.212516,0.92976 -0.07969,0.39847 -0.132823,0.98289 0.438316,-1.14227 0.98289,-1.85952 0.544574,-0.71724 1.062583,-1.02273 0.51801,-0.3055 0.943043,-0.3055 0.385187,0 0.584421,0.2258 0.212517,0.21252 0.212517,0.63755 0,0.25237 -0.146105,0.95633 z" />
      <path
         id="path4545"
         style="font-style:normal;font-variant:normal;font-weight:normal;font-stretch:normal;font-family:Pacifico;-inkscape-font-specification:Pacifico;stroke-width:0.26458332"
         d="m 60.014666,291.02298 q -0.491445,0 -0.703962,-0.21251 -0.212516,-0.2258 -0.212516,-0.83679 0,-0.41175 0.07969,-1.0493 0.09298,-0.65083 0.292211,-1.77983 0.34534,-2.08532 0.544574,-3.61278 0.119541,-0.95632 0.119541,-1.59387 0,-0.59771 -0.438316,-0.59771 -0.34534,0 -0.836785,0.35862 -0.478162,0.34534 -1.062583,1.11572 -0.185952,0.25236 -0.411751,0.25236 -0.185953,0 -0.332058,-0.17267 -0.132823,-0.18595 -0.132823,-0.41175 0,-0.21252 0.07969,-0.42503 0.09298,-0.2258 0.292211,-0.50473 0.63755,-0.88992 1.421205,-1.36808 0.783656,-0.49144 1.567311,-0.49144 0.730526,0 1.115713,0.46488 0.398469,0.46488 0.398469,1.35479 0,0.35862 -0.06641,0.85007 -0.06641,0.47816 -0.119541,0.78365 -0.05313,0.3055 -0.07969,0.42504 0.757091,-2.16502 1.700133,-3.01508 0.943043,-0.86335 2.072039,-0.86335 0.863349,0 1.354794,0.61098 0.504727,0.61099 0.504727,1.7267 0,0.43832 -0.119541,1.08915 0.664115,-1.83296 1.554029,-2.6299 0.889914,-0.79693 2.045473,-0.79693 0.929761,0 1.421206,0.5977 0.504727,0.5977 0.504727,1.67357 0,0.58442 -0.17267,1.42121 l -0.81022,3.79873 q -0.132823,0.66412 -0.132823,1.14228 0,0.55786 0.252364,0.83678 0.265646,0.27893 0.730526,0.27893 0.438316,0 0.850067,-0.29221 0.425033,-0.29221 0.996172,-0.96961 0.159388,-0.18595 0.358622,-0.18595 0.17267,0 0.265646,0.15939 0.106258,0.15939 0.106258,0.43831 0,0.51801 -0.252363,0.82351 -0.69068,0.83678 -1.368077,1.22197 -0.677397,0.38518 -1.421205,0.38518 -1.128995,0 -1.766546,-0.66411 -0.63755,-0.6774 -0.63755,-1.80639 0,-0.78366 0.318775,-2.27127 l 0.531292,-2.43066 q 0.02656,-0.11955 0.09298,-0.42504 0.06641,-0.30549 0.106259,-0.57114 0.03985,-0.27892 0.03985,-0.54457 0,-0.46488 -0.185953,-0.69068 -0.172669,-0.23908 -0.504727,-0.23908 -0.624268,0 -1.314947,0.81022 -0.677397,0.79694 -1.301665,2.65646 -0.610986,1.85952 -0.996172,4.83475 -0.09298,0.79694 -0.332058,1.07587 -0.225799,0.26564 -0.743808,0.26564 -0.451598,0 -0.664115,-0.21251 -0.199234,-0.21252 -0.199234,-0.79694 0,-0.54457 0.146105,-1.42121 0.146105,-0.88991 0.371904,-2.08532 0.610986,-3.21431 0.610986,-4.14407 0,-0.50473 -0.199235,-0.74381 -0.185952,-0.23908 -0.571138,-0.23908 -0.650833,0 -1.341512,0.74381 -0.690679,0.73052 -1.354794,2.61661 -0.650833,1.8728 -1.089148,5.07384 -0.09298,0.67739 -0.278929,0.94304 -0.172669,0.26564 -0.690679,0.26564 z" />
      <path
         id="path4547"
         style="font-style:normal;font-variant:normal;font-weight:normal;font-stretch:normal;font-family:Pacifico;-inkscape-font-specification:Pacifico;stroke-width:0.26458332"
         d="m 75.573835,291.02298 q -0.823503,0 -1.314948,-0.5977 -0.491445,-0.5977 -0.491445,-1.56731 0,-1.06258 0.491445,-2.00563 0.491445,-0.95632 1.301665,-1.52746 0.823503,-0.58442 1.739981,-0.58442 0.29221,0 0.385187,0.11954 0.106258,0.10626 0.172669,0.39847 0.278929,-0.0531 0.584421,-0.0531 0.650833,0 0.650833,0.46488 0,0.27893 -0.199235,1.32823 -0.305492,1.52746 -0.305492,2.12517 0,0.19923 0.09298,0.31877 0.106258,0.11954 0.265646,0.11954 0.252363,0 0.610985,-0.31877 0.358622,-0.33206 0.969608,-1.06259 0.159387,-0.18595 0.358622,-0.18595 0.17267,0 0.265646,0.15939 0.106258,0.15939 0.106258,0.43831 0,0.5313 -0.252364,0.82351 -0.544574,0.67739 -1.155559,1.14227 -0.610986,0.46488 -1.182125,0.46488 -0.438315,0 -0.81022,-0.29221 -0.358622,-0.30549 -0.544574,-0.8235 -0.690679,1.11571 -1.73998,1.11571 z m 0.478162,-1.34151 q 0.292211,0 0.557857,-0.34534 0.265646,-0.34534 0.385186,-0.91647 l 0.491445,-2.44395 q -0.557856,0.0133 -1.036019,0.42504 -0.46488,0.39847 -0.743808,1.06258 -0.278929,0.66411 -0.278929,1.40792 0,0.41175 0.159388,0.61099 0.17267,0.19923 0.46488,0.19923 z" />
      <path
         id="path4549"
         style="font-style:normal;font-variant:normal;font-weight:normal;font-stretch:normal;font-family:Pacifico;-inkscape-font-specification:Pacifico;stroke-width:0.26458332"
         d="m 81.135177,291.02298 q -0.504727,0 -0.717244,-0.53129 -0.199234,-0.53129 -0.199234,-1.70013 0,-1.7267 0.491445,-3.28073 0.11954,-0.38518 0.385186,-0.55785 0.278928,-0.18596 0.770373,-0.18596 0.265646,0 0.371905,0.0664 0.106258,0.0664 0.106258,0.25236 0,0.21252 -0.199235,0.95632 -0.132822,0.5313 -0.212516,0.92976 -0.07969,0.39847 -0.132823,0.98289 0.438316,-1.14227 0.98289,-1.85952 0.544574,-0.71724 1.062583,-1.02273 0.531292,-0.3055 0.969608,-0.3055 0.863349,0 0.863349,0.86335 0,0.51801 -0.29221,1.87281 -0.252364,1.15556 -0.252364,1.52746 0,0.53129 0.385186,0.53129 0.265646,0 0.624268,-0.31877 0.371905,-0.33206 0.98289,-1.06259 0.159388,-0.18595 0.358622,-0.18595 0.17267,0 0.265646,0.15939 0.106258,0.15939 0.106258,0.43831 0,0.5313 -0.252363,0.82351 -0.571139,0.70396 -1.235254,1.15556 -0.650832,0.45159 -1.487617,0.45159 -0.677397,0 -1.022736,-0.38518 -0.34534,-0.39847 -0.34534,-1.14228 0,-0.3719 0.185952,-1.32823 0.17267,-0.83678 0.17267,-1.15556 0,-0.21251 -0.146105,-0.21251 -0.17267,0 -0.491445,0.45159 -0.305493,0.43832 -0.63755,1.16885 -0.318776,0.73052 -0.51801,1.54074 -0.146105,0.62427 -0.34534,0.85007 -0.185952,0.21251 -0.597703,0.21251 z" />
      <path
         id="path4551"
         style="font-style:normal;font-variant:normal;font-weight:normal;font-stretch:normal;font-family:Pacifico;-inkscape-font-specification:Pacifico;stroke-width:0.26458332"
         d="m 88.41512,291.02298 q -0.823502,0 -1.314947,-0.5977 -0.491445,-0.5977 -0.491445,-1.56731 0,-1.06258 0.491445,-2.00563 0.491445,-0.95632 1.301665,-1.52746 0.823502,-0.58442 1.739981,-0.58442 0.29221,0 0.385186,0.11954 0.106259,0.10626 0.17267,0.39847 0.278928,-0.0531 0.584421,-0.0531 0.650833,0 0.650833,0.46488 0,0.27893 -0.199235,1.32823 -0.305493,1.52746 -0.305493,2.12517 0,0.19923 0.09298,0.31877 0.106259,0.11954 0.265646,0.11954 0.252364,0 0.610986,-0.31877 0.358622,-0.33206 0.969607,-1.06259 0.159388,-0.18595 0.358622,-0.18595 0.17267,0 0.265646,0.15939 0.106259,0.15939 0.106259,0.43831 0,0.5313 -0.252364,0.82351 -0.544574,0.67739 -1.15556,1.14227 -0.610985,0.46488 -1.182124,0.46488 -0.438316,0 -0.81022,-0.29221 -0.358622,-0.30549 -0.544574,-0.8235 -0.690679,1.11571 -1.739981,1.11571 z m 0.478163,-1.34151 q 0.29221,0 0.557856,-0.34534 0.265646,-0.34534 0.385187,-0.91647 l 0.491445,-2.44395 q -0.557857,0.0133 -1.036019,0.42504 -0.464881,0.39847 -0.743809,1.06258 -0.278928,0.66411 -0.278928,1.40792 0,0.41175 0.159388,0.61099 0.172669,0.19923 0.46488,0.19923 z" />
      <path
         id="path4553"
         style="font-style:normal;font-variant:normal;font-weight:normal;font-stretch:normal;font-family:Pacifico;-inkscape-font-specification:Pacifico;stroke-width:0.26458332"
         d="m 99.833947,288.02119 q 0.172673,0 0.265643,0.17267 0.10626,0.15938 0.10626,0.41175 0,0.30549 -0.093,0.47816 -0.093,0.17267 -0.292215,0.30549 -1.142277,0.77038 -1.673569,1.14228 l -0.850067,0.57114 q -0.504727,2.74943 -1.32823,4.31674 -0.81022,1.5806 -2.072038,1.5806 -0.677397,0 -1.10243,-0.42504 -0.425034,-0.41175 -0.425034,-1.08914 0,-0.94305 0.743809,-2.0322 0.743808,-1.07586 2.789282,-2.65645 l 0.07969,-0.51801 q -0.225799,0.35862 -0.597704,0.55785 -0.358622,0.18595 -0.717244,0.18595 -0.823502,0 -1.314947,-0.5977 -0.491445,-0.5977 -0.491445,-1.56731 0,-1.06258 0.491445,-2.00563 0.491445,-0.95632 1.301665,-1.52746 0.823502,-0.58442 1.739981,-0.58442 0.29221,0 0.385186,0.11954 0.106259,0.10626 0.17267,0.39847 0.252364,-0.0531 0.584421,-0.0531 0.332058,0 0.464881,0.10626 0.146105,0.093 0.146105,0.38518 0,0.15939 -0.01328,0.25237 -0.05313,0.41175 -0.332058,2.08532 -0.05313,0.31877 -0.119541,0.70396 -0.05313,0.3719 -0.11954,0.79694 1.022737,-0.79694 1.96578,-1.40793 0.172669,-0.10625 0.305492,-0.10625 z m -4.68865,1.66028 q 0.305493,0 0.584421,-0.3719 0.278928,-0.37191 0.398469,-1.06258 l 0.425033,-2.27128 q -0.544574,0.0133 -1.009454,0.42504 -0.46488,0.39847 -0.743809,1.06258 -0.278928,0.66411 -0.278928,1.40792 0,0.41175 0.159388,0.61099 0.17267,0.19923 0.46488,0.19923 z m -1.10243,6.03017 q 0.332057,0 0.743808,-0.79694 0.425034,-0.79694 0.81022,-2.53692 -1.022737,0.87663 -1.474335,1.58059 -0.451598,0.70396 -0.451598,1.23526 0,0.22579 0.07969,0.3719 0.09298,0.14611 0.292211,0.14611 z" />
      <path
         id="path4555"
         style="font-style:normal;font-variant:normal;font-weight:normal;font-stretch:normal;font-family:Pacifico;-inkscape-font-specification:Pacifico;stroke-width:0.26458332"
         d="m 105.31311,287.99462 q 0.17266,0 0.26564,0.15939 0.10626,0.15939 0.10626,0.43831 0,0.5313 -0.25236,0.82351 -0.49145,0.5977 -1.39465,1.10243 -0.88991,0.50472 -1.91265,0.50472 -1.39464,0 -2.16501,-0.75709 -0.770373,-0.75709 -0.770373,-2.07203 0,-0.91648 0.385186,-1.70014 0.385187,-0.79694 1.062587,-1.26182 0.69068,-0.46488 1.55403,-0.46488 0.77037,0 1.23525,0.46488 0.46488,0.4516 0.46488,1.23526 0,0.91648 -0.66412,1.58059 -0.65083,0.65083 -2.21814,1.03602 0.33206,0.61099 1.26182,0.61099 0.5977,0 1.35479,-0.41176 0.77038,-0.42503 1.32823,-1.10243 0.15939,-0.18595 0.35863,-0.18595 z m -3.34714,-1.92593 q -0.49145,0 -0.83679,0.57114 -0.33206,0.57114 -0.33206,1.38136 v 0.0266 q 0.78366,-0.18595 1.23526,-0.55786 0.4516,-0.3719 0.4516,-0.86334 0,-0.25237 -0.14611,-0.39847 -0.13282,-0.15939 -0.3719,-0.15939 z" />
      <path
         id="path4557"
         style="font-style:normal;font-variant:normal;font-weight:normal;font-stretch:normal;font-family:Pacifico;-inkscape-font-specification:Pacifico;stroke-width:0.26458332"
         d="m 109.96958,286.5867 q 0.29221,0 0.49145,0.21252 0.21251,0.19923 0.21251,0.50472 0,0.17267 -0.0797,0.37191 -0.21252,0.49144 -0.5977,0.8235 -0.38519,0.33206 -0.85007,0.33206 -0.37191,0 -0.63755,-0.26565 -0.25236,-0.26565 -0.25236,-0.71724 0,-0.25237 0.0266,-0.54458 0.0266,-0.21251 0.0266,-0.29221 0,-0.10626 -0.0531,-0.15939 -0.0399,-0.0531 -0.10626,-0.0531 -0.18596,0 -0.50473,0.45159 -0.31878,0.43832 -0.63755,1.16885 -0.31878,0.73052 -0.51801,1.54074 -0.14611,0.63755 -0.33206,0.85007 -0.18595,0.21251 -0.61098,0.21251 -0.50473,0 -0.71725,-0.53129 -0.19923,-0.53129 -0.19923,-1.70013 0,-1.7267 0.49144,-3.28073 0.11954,-0.38518 0.38519,-0.55785 0.27893,-0.18596 0.77037,-0.18596 0.26565,0 0.37191,0.0664 0.10626,0.0664 0.10626,0.25236 0,0.21252 -0.19924,0.95632 -0.13282,0.5313 -0.21252,0.92976 -0.0797,0.39847 -0.13282,0.98289 0.43832,-1.14227 0.98289,-1.85952 0.54458,-0.71724 1.06259,-1.02273 0.518,-0.3055 0.94304,-0.3055 0.38518,0 0.58442,0.2258 0.21252,0.21252 0.21252,0.63755 0,0.25237 -0.14611,0.95633 z" />
    </g>
  </g>
</svg>
